<svg xmlns="http://www.w3.org/2000/svg" viewBox="0 0 24 24" fill="#ffffff"><path d="M12 2.163c3.204 0 3.584.012 4.85.07 1.17.054 1.97.24 2.43.402a4.92 4.92 0 011.675 1.084 4.92 4.92 0 011.084 1.675c.162.461.348 1.26.402 2.43.058 1.266.07 1.646.07 4.85s-.012 3.584-.07 4.85c-.054 1.17-.24 1.97-.402 2.43a4.92 4.92 0 01-1.084 1.675 4.92 4.92 0 01-1.675 1.084c-.461.162-1.26.348-2.43.402-1.266.058-1.646.07-4.85.07s-3.584-.012-4.85-.07c-1.17-.054-1.97-.24-2.43-.402a4.92 4.92 0 01-1.675-1.084 4.92 4.92 0 01-1.084-1.675c-.162-.461-.348-1.26-.402-2.43-.058-1.266-.07-1.646-.07-4.85s.012-3.584.07-4.85c.054-1.17.24-1.97.402-2.43a4.92 4.92 0 011.084-1.675A4.92 4.92 0 014.72 2.635c.461-.162 1.26-.348 2.43-.402 1.266-.058 1.646-.07 4.85-.07zm0 1.838c-3.146 0-3.517.011-4.754.069-1.024.046-1.58.216-1.948.36-.495.192-.85.422-1.223.795a2.88 2.88 0 00-.795 1.223c-.144.368-.314.924-.36 1.948-.058 1.237-.069 1.608-.069 4.754s.011 3.517.069 4.754c.046 1.024.216 1.58.36 1.948.192.495.422.85.795 1.223.373.373.728.603 1.223.795.368.144.924.314 1.948.36 1.237.058 1.608.069 4.754.069s3.517-.011 4.754-.069c1.024-.046 1.58-.216 1.948-.36.495-.192.85-.422 1.223-.795.373-.373.603-.728.795-1.223.144-.368.314-.924.36-1.948.058-1.237.069-1.608.069-4.754s-.011-3.517-.069-4.754c-.046-1.024-.216-1.58-.36-1.948a2.88 2.88 0 00-.795-1.223 2.88 2.88 0 00-1.223-.795c-.368-.144-.924-.314-1.948-.36-1.237-.058-1.608-.069-4.754-.069zm0 3.838a5.999 5.999 0 110 11.998 5.999 5.999 0 010-11.998zm0 1.838a4.162 4.162 0 100 8.324 4.162 4.162 0 000-8.324zm5.406-1.912a1.38 1.38 0 110 2.76 1.38 1.38 0 010-2.76z"/></svg>